<svg width="1011" height="1437" xmlns="http://www.w3.org/2000/svg" xmlns:xlink="http://www.w3.org/1999/xlink" xml:space="preserve" overflow="hidden"><g transform="translate(-1752 -499)"><path d="M2065.28 681 2450.72 681C2573.48 681 2673 780.517 2673 903.277L2673 1210.96C2673 1291.06 2608.06 1356 2527.96 1356L1988.04 1356C1907.94 1356 1843 1291.06 1843 1210.96L1843 903.277C1843 780.517 1942.52 681 2065.28 681Z" stroke="#FFFFFF" stroke-width="45.8333" stroke-miterlimit="8" fill="none" fill-rule="evenodd"/><path d="M1981 1041C1981 984.667 2026.67 939 2083 939L2083 939C2139.33 939 2185 984.667 2185 1041L2185 1041C2185 1097.33 2139.33 1143 2083 1143L2083 1143C2026.67 1143 1981 1097.33 1981 1041Z" fill="#FFFFFF" fill-rule="evenodd"/><path d="M2331 1041C2331 984.667 2376.67 939 2433 939L2434 939C2490.33 939 2536 984.667 2536 1041L2536 1041C2536 1097.33 2490.33 1143 2434 1143L2433 1143C2376.67 1143 2331 1097.33 2331 1041Z" fill="#FFFFFF" fill-rule="evenodd"/><path d="M2426 1121.5C2426 1110.18 2435.18 1101 2446.5 1101L2515.5 1101C2526.82 1101 2536 1110.18 2536 1121.5L2536 1121.5C2536 1132.82 2526.82 1142 2515.5 1142L2446.5 1142C2435.18 1142 2426 1132.82 2426 1121.5Z" fill="#FFFFFF" fill-rule="evenodd"/><path d="M2480.5 1118C2492.37 1118 2502 1127.63 2502 1139.5L2502 1301.5C2502 1313.37 2492.37 1323 2480.5 1323L2480.5 1323C2468.63 1323 2459 1313.37 2459 1301.5L2459 1139.5C2459 1127.63 2468.63 1118 2480.5 1118Z" fill="#FFFFFF" fill-rule="evenodd"/><path d="M1980 1122.5C1980 1111.18 1989.18 1102 2000.5 1102L2076.5 1102C2087.82 1102 2097 1111.18 2097 1122.5L2097 1122.5C2097 1133.82 2087.82 1143 2076.5 1143L2000.5 1143C1989.18 1143 1980 1133.82 1980 1122.5Z" fill="#FFFFFF" fill-rule="evenodd"/><path d="M2180.37 1238.16C2204.74 1197.07 2257.81 1183.51 2298.91 1207.88 2312.9 1216.19 2324.27 1228.27 2331.71 1242.74" stroke="#FFFFFF" stroke-width="53.8542" stroke-linecap="round" stroke-linejoin="round" stroke-miterlimit="10" fill="none" fill-rule="evenodd"/><path d="M2015.59 1415 2500.41 1415C2521.72 1415 2539 1432.28 2539 1453.59L2539 1708.68C2539 1821.52 2447.52 1913 2334.68 1913L2181.32 1913C2068.48 1913 1977 1821.52 1977 1708.68L1977 1453.59C1977 1432.28 1994.28 1415 2015.59 1415Z" stroke="#FFFFFF" stroke-width="45.8333" stroke-linecap="round" stroke-linejoin="round" stroke-miterlimit="10" fill="none" fill-rule="evenodd"/><path d="M2606 1482C2606 1445 2636 1415 2673 1415L2673 1415C2710 1415 2740 1445 2740 1482L2740 1699C2740 1736 2710 1766 2673 1766L2673 1766C2636 1766 2606 1736 2606 1699Z" stroke="#FFFFFF" stroke-width="45.8333" stroke-miterlimit="8" fill="none" fill-rule="evenodd"/><path d="M1775 1482.5C1775 1445.22 1805.22 1415 1842.5 1415L1842.5 1415C1879.78 1415 1910 1445.22 1910 1482.5L1910 1698.5C1910 1735.78 1879.78 1766 1842.5 1766L1842.5 1766C1805.22 1766 1775 1735.78 1775 1698.5Z" stroke="#FFFFFF" stroke-width="45.8333" stroke-miterlimit="8" fill="none" fill-rule="evenodd"/><path d="M2526 522 2526 522C2539.81 522 2551 533.193 2551 547L2551 680 2501 680 2501 547C2501 533.193 2512.19 522 2526 522Z" stroke="#FFFFFF" stroke-width="45.8333" stroke-miterlimit="8" fill="none" fill-rule="evenodd"/></g></svg>