<svg width="693" height="758" xmlns="http://www.w3.org/2000/svg" xmlns:xlink="http://www.w3.org/1999/xlink" xml:space="preserve" overflow="hidden"><g transform="translate(-1837 -625)"><path d="M2130.42 1223 2131.19 1224.23C2138.74 1232.35 2149.16 1237.38 2160.68 1237.38L2174.19 1234.44 2175 1242.11C2175 1266.9 2164.48 1287 2151.5 1287 2138.52 1287 2128 1266.9 2128 1242.11 2128 1235.91 2128.66 1230.01 2129.85 1224.63Z" fill="#FFFFFF" fill-rule="evenodd"/><path d="M2223 812.5C2223 798.417 2234.42 787 2248.5 787L2248.5 787C2262.58 787 2274 798.417 2274 812.5L2274 986.5C2274 1000.58 2262.58 1012 2248.5 1012L2248.5 1012C2234.42 1012 2223 1000.58 2223 986.5Z" fill="#FFFFFF" fill-rule="evenodd"/><path d="M2295 889.5C2295 875.417 2306.42 864 2320.5 864L2320.5 864C2334.58 864 2346 875.417 2346 889.5L2346 1022.5C2346 1036.58 2334.58 1048 2320.5 1048L2320.5 1048C2306.42 1048 2295 1036.58 2295 1022.5Z" fill="#FFFFFF" fill-rule="evenodd"/><path d="M2368 754C2368 740.193 2379.19 729 2393 729L2393 729C2406.81 729 2418 740.193 2418 754L2418 888C2418 901.807 2406.81 913 2393 913L2393 913C2379.19 913 2368 901.807 2368 888Z" fill="#FFFFFF" fill-rule="evenodd"/><path d="M2232.25 1044C2281.56 1116.69 2327.41 1122.7 2361.35 1105.62L2365.23 1102.85 2369.31 1123.79C2372.43 1151.61 2371.98 1180.98 2371.98 1209.97 2371.98 1325.93 2274.47 1366.32 2176.19 1368.42 1914.1 1374.03 1921.78 1340.35 1926.36 1208.26 1926.93 1191.74 1926.86 1175.52 1926.77 1159.79L1927.04 1118.5 1939.34 1123.53C1969.53 1129.65 1998.55 1110.33 1998.05 1053.44 1999.2 1078.66 2025.36 1139.74 2115.01 1144.18 2194.36 1143.46 2229.82 1083.09 2232.25 1044Z" stroke="#FFFFFF" stroke-width="27.5" stroke-linecap="round" stroke-linejoin="round" stroke-miterlimit="10" fill="none" fill-rule="evenodd"/><path d="M1873.68 1040.79C1865.38 951.042 1931.28 838.005 2144.24 823.929 2357.2 809.854 2425.53 959.201 2419.66 1028.48 2416.32 1067.84 2331.44 1189.22 2232.7 1043.8 2230.27 1082.9 2194.77 1143.28 2115.32 1144 2025.57 1139.56 1999.37 1078.46 1998.22 1053.25 1999.23 1167.05 1881.99 1130.54 1873.68 1040.79Z" stroke="#FFFFFF" stroke-width="27.5" stroke-linecap="round" stroke-linejoin="round" stroke-miterlimit="10" fill="none" fill-rule="evenodd"/><path d="M2038.35 639.003C2091.15 638.653 2121.32 664.539 2141.17 705.703L2146.36 720.22 2152.77 710.263C2172.93 687.018 2203.78 670.787 2236.21 671.002 2279.46 671.289 2337.01 698.483 2313.59 799.132 2271.28 760.471 2229.34 756.496 2200.42 770.971 2182.34 780.019 2170.68 784.124 2159.86 810.032L2157.57 816.572 2149.96 816.728 2126.96 819 2125.1 805.413 2114.87 789.682C2099.46 768.986 2082.53 757.561 2063.16 749.011 2024.42 731.912 1976.65 736.192 1925 783.391 1930.74 669.114 1985.55 639.353 2038.35 639.003Z" stroke="#FFFFFF" stroke-width="27.5" stroke-linecap="round" stroke-linejoin="round" stroke-miterlimit="10" fill="none" fill-rule="evenodd"/><path d="M2418.91 1006 2422.54 1009.64C2435.06 1112.55 2448.79 1186.1 2516 1291.19 2450.01 1313.61 2391.12 1330.14 2334.9 1341.27L2278 1350 2282.01 1348.65C2334.62 1326.05 2372.74 1282.99 2372.74 1210.33 2372.74 1181.27 2373.19 1151.82 2370.07 1123.93L2366 1102.99 2385.42 1089.12C2406.03 1069.65 2418.74 1043.29 2419.99 1028.5L2418.91 1006Z" stroke="#FFFFFF" stroke-width="27.5" stroke-linecap="round" stroke-linejoin="round" stroke-miterlimit="10" fill="none" fill-rule="evenodd"/><path d="M1892.88 1091 1896.31 1096.55C1900.88 1101.9 1905.91 1106.58 1911.2 1110.49L1926.53 1119.18 1926.26 1159.73C1926.35 1175.48 1926.42 1191.73 1925.85 1208.26 1923.55 1274.41 1920.47 1315.91 1950.87 1340.18L1960 1346 1923 1336.04C1897.59 1327.65 1873.41 1316.31 1851 1301.02 1892.77 1235.71 1921.03 1205.13 1892.91 1091.11L1892.88 1091Z" stroke="#FFFFFF" stroke-width="27.5" stroke-linecap="round" stroke-linejoin="round" stroke-miterlimit="10" fill="none" fill-rule="evenodd"/><path d="M2145 1283C2145 1275.82 2150.82 1270 2158 1270L2173 1270C2180.18 1270 2186 1275.82 2186 1283L2186 1283C2186 1290.18 2180.18 1296 2173 1296L2158 1296C2150.82 1296 2145 1290.18 2145 1283Z" fill="#FFFFFF" fill-rule="evenodd"/><path d="M2.42367 0 3.19461 1.23069C10.7393 9.35443 21.1623 14.379 32.6751 14.379L46.1898 11.4413 47.0001 19.1084C47.0001 43.9015 36.4789 63.9999 23.5 63.9999 10.5212 63.9999 0 43.9015 0 19.1084 0 12.9102 0.657554 7.00533 1.847 1.63458Z" fill="#FFFFFF" fill-rule="evenodd" transform="matrix(-1 0 0 1 2029 1221)"/><path d="M1971 1283C1971 1275.82 1976.82 1270 1984 1270L1999 1270C2006.18 1270 2012 1275.82 2012 1283L2012 1283C2012 1290.18 2006.18 1296 1999 1296L1984 1296C1976.82 1296 1971 1290.18 1971 1283Z" fill="#FFFFFF" fill-rule="evenodd"/><path d="M1995 1289.5C1995 1284.81 1998.81 1281 2003.5 1281L2003.5 1281C2008.19 1281 2012 1284.81 2012 1289.5L2012 1365.5C2012 1370.19 2008.19 1374 2003.5 1374L2003.5 1374C1998.81 1374 1995 1370.19 1995 1365.5Z" fill="#FFFFFF" fill-rule="evenodd"/></g></svg>