<svg width="455" height="455" xmlns="http://www.w3.org/2000/svg" xmlns:xlink="http://www.w3.org/1999/xlink" xml:space="preserve" overflow="hidden"><g transform="translate(-1820 -1125)"><path d="M1950 1125 2015 1125 2080 1125 2145 1125 2145 1190 2210 1190 2210 1255 2275 1255 2275 1320 2275 1385 2275 1450 2210 1450 2210 1515 2145 1515 2145 1580 2080 1580 2015 1580 1950 1580 1950 1515 1885 1515 1885 1450 1820 1450 1820 1385 1820 1320 1820 1255 1885 1255 1885 1190 1950 1190Z" fill="userProfile.avatar_ur" fill-rule="evenodd"/></g></svg>