<svg width="2810" height="665" xmlns="http://www.w3.org/2000/svg" xmlns:xlink="http://www.w3.org/1999/xlink" xml:space="preserve" overflow="hidden"><defs><clipPath id="clip0"><rect x="795" y="182" width="2810" height="665"/></clipPath></defs><g clip-path="url(#clip0)" transform="translate(-795 -182)"><path d="M3605 410.189 3605 370.652C3605 363.858 3599.41 358.668 3592.23 358.668L3453.77 358.668 3453.77 281.981C3453.77 275.193 3448.19 270 3441 270L3388.35 270C3381.16 270 3375.57 275.591 3375.57 281.981L3375.57 358.668 3293.78 358.668C3286.59 358.668 3281 364.259 3281 370.652L3281 410.189C3281 416.98 3286.59 422.173 3293.78 422.173L3375.57 422.173 3375.57 539.598C3375.57 629.463 3417.85 671 3508.83 671L3583.05 671C3590.23 671 3595.82 665.409 3595.82 659.019L3595.82 619.481C3595.82 612.687 3590.23 607.497 3583.05 607.497L3520.8 607.497C3471.33 607.497 3453.77 587.926 3453.77 539.197L3453.77 422.574 3592.23 422.574C3599.41 422.173 3605 416.579 3605 410.189Z" fill="#FFFFFF" fill-rule="evenodd"/><path d="M3188.28 238 3116.72 238C3109.56 238 3104 243.539 3104 249.871L3104 300.129C3104 306.855 3109.56 312 3116.72 312L3188.28 312C3195.44 312 3201 306.461 3201 300.129L3201 249.871C3200.6 243.145 3195.04 238 3188.28 238Z" fill="#FFFFFF" fill-rule="evenodd"/><path d="M3198.43 607.362 3198.43 370.007C3198.43 363.204 3192.84 358 3185.65 358L3024.77 358C3017.59 358 3012 363.603 3012 370.007L3012 409.635C3012 416.437 3017.59 421.641 3024.77 421.641L3120.18 421.641 3120.18 607.362 3024.77 607.362C3017.59 607.362 3012 612.964 3012 619.368L3012 658.996C3012 665.799 3017.59 671.003 3024.77 671.003L3296.22 671.003C3303.41 671.003 3309 665.4 3309 658.996L3309 619.368C3309 612.565 3303.41 607.362 3296.22 607.362L3198.43 607.362Z" fill="#FFFFFF" fill-rule="evenodd"/><path d="M2951.23 607.493 2869.79 607.493 2869.79 249.982C2869.79 243.193 2864.21 238 2857.02 238L2697.35 238C2690.16 238 2684.58 243.591 2684.58 249.982L2684.58 289.53C2684.58 296.319 2690.16 301.513 2697.35 301.513L2791.56 301.513 2791.56 607.493 2685.78 607.493C2678.59 607.493 2673 613.085 2673 619.475L2673 659.021C2673 665.809 2678.59 671.003 2685.78 671.003L2951.23 671.003C2958.41 671.003 2964 665.411 2964 659.021L2964 619.475C2964 612.686 2958.41 607.493 2951.23 607.493Z" fill="#FFFFFF" fill-rule="evenodd"/><path d="M2517.6 352C2490.4 352 2470.8 357.993 2455.6 372.37L2436.8 390.348 2419.6 390.348 2413.2 367.179C2411.6 361.989 2406.8 357.993 2400.8 357.993L2364.8 357.993C2357.6 357.993 2352 363.584 2352 369.978L2352 779.017C2352 785.806 2357.6 791 2364.8 791L2417.6 791C2424.8 791 2430.4 785.408 2430.4 779.017L2430.4 690.336 2423.6 642.804 2441.2 638.811 2460 656.783C2474.8 670.364 2492.8 677.156 2519.6 677.156 2597.2 677.156 2644 623.628 2644 514.576 2643.6 405.528 2597.2 352 2517.6 352ZM2491.6 611.646C2452 611.646 2430 591.273 2430 552.526L2430 475.83C2430 437.084 2451.6 416.714 2491.6 416.714 2540 416.714 2562 447.07 2562 513.78 2561.6 581.287 2540 611.646 2491.6 611.646Z" fill="#FFFFFF" fill-rule="evenodd"/><path d="M2128.72 352C2027.98 352 1974 405.568 1974 514.301 1974 623.435 2027.57 677 2126.72 677 2203.48 677 2253.06 645.021 2266.25 590.255 2268.25 582.658 2261.85 575.463 2253.86 575.463L2205.88 575.463C2200.69 575.463 2195.89 578.662 2193.89 583.458 2185.49 607.046 2161.5 618.237 2129.12 618.237 2078.75 618.237 2054.76 590.654 2051.56 526.295L2270.25 526.295C2282.24 405.969 2232.27 352 2128.72 352ZM2053.96 477.523C2061.56 430.354 2085.14 408.366 2128.32 408.366 2174.3 408.366 2195.89 432.75 2197.09 477.523L2053.96 477.523Z" fill="#FFFFFF" fill-rule="evenodd"/><path d="M1818.2 372.595 1800.2 390.571 1782.2 390.571 1776.6 367.799C1775.4 362.208 1770.2 358.612 1764.2 358.612L1649 358.612C1641.8 358.612 1636.2 364.204 1636.2 370.595L1636.2 410.146C1636.2 416.935 1641.8 422.129 1649 422.129L1717 422.129 1717 607.486 1637.8 607.486C1630.6 607.486 1625 613.078 1625 619.469L1625 659.017C1625 665.809 1630.6 671.003 1637.8 671.003L1887 671.003C1894.2 671.003 1899.8 665.411 1899.8 659.017L1899.8 619.469C1899.8 612.68 1894.2 607.486 1887 607.486L1795.4 607.486 1795.4 476.459C1795.4 439.704 1817 420.531 1859.4 420.531L1928.2 420.531C1935.4 420.531 1941 414.936 1941 408.547L1941 365.004C1941 358.214 1935.4 353.02 1928.2 353.02L1887.4 353.02C1857.4 352.622 1833.8 358.214 1818.2 372.595Z" fill="#FFFFFF" fill-rule="evenodd"/><path d="M795 223.626C795 200.637 813.603 182 836.552 182L1030.45 182C1053.4 182 1072 200.637 1072 223.626L1072 404 836.552 404C813.603 404 795 385.363 795 362.376L795 223.626Z" fill="#F26207" fill-rule="evenodd"/><path d="M1072 404 1306.6 404C1329.46 404 1348 422.553 1348 445.439L1348 583.564C1348 606.447 1329.46 625 1306.6 625L1072 625 1072 404Z" fill="#F26207" fill-rule="evenodd"/><path d="M795 666.626C795 643.637 813.603 625 836.552 625L1072 625 1072 805.376C1072 828.363 1053.4 847 1030.45 847L836.552 847C813.603 847 795 828.363 795 805.376L795 666.626Z" fill="#F26207" fill-rule="evenodd"/></g></svg>