<svg width="1728" height="263" xmlns="http://www.w3.org/2000/svg" xmlns:xlink="http://www.w3.org/1999/xlink" xml:space="preserve" overflow="hidden"><defs><clipPath id="clip0"><rect x="1336" y="1106" width="1728" height="263"/></clipPath></defs><g clip-path="url(#clip0)" transform="translate(-1336 -1106)"><path d="M1336.24 1325.73C1332.8 1292.86 1367.2 1167.51 1386.69 1133.11 1406.18 1098.72 1437.9 1102.92 1453.19 1119.35 1468.48 1135.79 1466.95 1231.33 1478.41 1231.71 1489.88 1232.1 1504.4 1136.93 1521.98 1121.65 1539.57 1106.36 1571.29 1106.74 1583.9 1139.99 1596.51 1173.24 1606.45 1287.51 1597.66 1321.14 1588.87 1354.78 1540.71 1352.87 1531.16 1341.78 1521.6 1330.7 1549.88 1253.88 1540.33 1254.64 1530.77 1255.41 1492.94 1345.6 1473.83 1346.37 1454.72 1347.13 1436.76 1261.91 1425.67 1259.23L1407.33 1330.32C1392.42 1341.4 1339.68 1358.6 1336.24 1325.73Z" fill="#FFFFFF" fill-rule="evenodd"/><path d="M1636 1320.25C1636.77 1256.92 1637.54 1193.6 1638.32 1130.27 1649.9 1098.6 1695.37 1097.22 1705.51 1130.27 1715.64 1163.32 1710.72 1296.89 1699.14 1328.55 1687.55 1360.21 1646.14 1353.3 1636 1320.25Z" fill="#FFFFFF" fill-rule="evenodd"/><path d="M1727.83 1321.74C1720.51 1290.93 1736.73 1178.15 1748.49 1149.78 1760.26 1121.41 1779.63 1132.58 1798.42 1151.5 1817.22 1170.42 1847.92 1264.28 1861.27 1263.27 1874.61 1262.27 1867.01 1167.69 1878.49 1145.48 1889.96 1123.27 1925.4 1098.33 1930.14 1130 1934.87 1161.67 1919.09 1298.38 1906.89 1335.5 1894.7 1372.61 1875.76 1363.01 1856.96 1352.69 1838.17 1342.38 1804.88 1276.6 1794.12 1273.59 1783.36 1270.58 1803.44 1326.61 1792.4 1334.64 1781.35 1342.66 1735.15 1352.55 1727.83 1321.74Z" fill="#FFFFFF" fill-rule="evenodd"/><path d="M1961.99 1344.63C1953.37 1330.93 1975.51 1304.61 1975.92 1271.22 1976.32 1237.83 1954.67 1165.46 1964.4 1144.3 1974.13 1123.15 2023.74 1109.46 2034.29 1144.3 2044.83 1179.15 2039.71 1319.99 2027.66 1353.38 2015.61 1386.76 1970.62 1358.32 1961.99 1344.63Z" fill="#FFFFFF" fill-rule="evenodd"/><path d="M2240.62 1168.78C2232.84 1152.89 2195.11 1124.81 2172.62 1123.12 2150.12 1121.43 2123.9 1137.33 2105.63 1158.63 2087.36 1179.94 2063.17 1221.71 2063 1250.96 2062.83 1280.22 2081.95 1316.41 2104.61 1334.16 2127.28 1351.92 2175.49 1360.2 2199.01 1357.5 2222.52 1354.79 2242.8 1330.88 2245.69 1317.93 2248.59 1304.98 2230.38 1284.53 2216.37 1279.79 2202.36 1275.06 2176.31 1295.59 2161.63 1289.54 2146.95 1283.49 2127.01 1258.57 2128.29 1243.49 2129.57 1228.4 2152.58 1201.9 2169.33 1199.02 2186.08 1196.15 2207.42 1223.54 2219.3 1218.5 2231.19 1213.46 2248.4 1184.68 2240.62 1168.78Z" fill="#FFFFFF" fill-rule="evenodd"/><path d="M2331.42 1178.53C2325.66 1185.28 2326.63 1204.1 2333.35 1206.9 2340.07 1209.71 2366.01 1202.08 2371.76 1195.33 2377.52 1188.59 2374.62 1169.21 2367.9 1166.41 2361.17 1163.61 2337.17 1171.78 2331.42 1178.53ZM2390.25 1115.11C2416.42 1116.58 2441.47 1128.33 2445.52 1148.17 2449.58 1168 2426.73 1221.63 2414.57 1234.12 2402.41 1246.61 2395.41 1235.4 2399.1 1247.89 2402.78 1260.38 2434.66 1286.92 2436.68 1309.05 2438.71 1331.18 2401.45 1362.03 2384.73 1355.88 2368.01 1349.73 2346.87 1273.88 2336.37 1272.13 2325.87 1270.39 2331.9 1333.38 2321.72 1345.41 2311.54 1357.44 2280.82 1378.65 2275.29 1344.31 2269.77 1309.97 2269.4 1177.55 2288.56 1139.35 2307.72 1101.15 2364.09 1113.64 2390.25 1115.11Z" fill="#FFFFFF" fill-rule="evenodd"/><path d="M2571.18 1216.95C2566.12 1213.41 2552.64 1218.41 2549.3 1223.4 2545.96 1228.38 2546.06 1243.31 2551.12 1246.86 2556.18 1250.41 2576.32 1249.67 2579.66 1244.69 2583 1239.7 2576.24 1220.5 2571.18 1216.95ZM2518.36 1154.75C2541.61 1126.6 2588.53 1139.02 2610.54 1169.66 2632.55 1200.3 2654.97 1310.43 2650.4 1338.59 2645.83 1366.74 2597.67 1345.21 2583.13 1338.59 2568.6 1331.96 2573.17 1297.6 2563.2 1298.84 2553.24 1300.08 2538.7 1339.42 2523.34 1346.04 2507.98 1352.67 2471.85 1370.47 2471.02 1338.59 2470.19 1306.71 2495.1 1182.91 2518.36 1154.75Z" fill="#FFFFFF" fill-rule="evenodd"/><path d="M2710.58 1347.5C2695.11 1318.68 2663.06 1201.91 2679.63 1165.7 2696.21 1129.49 2787.57 1123.95 2810.04 1130.23 2832.51 1136.51 2825.96 1190.07 2814.46 1203.39 2802.95 1216.71 2751.92 1204.48 2740.99 1210.14 2730.06 1215.79 2739.11 1233.4 2748.88 1237.31 2758.65 1241.22 2789.33 1224.57 2799.63 1233.59 2809.93 1242.61 2816.31 1281.31 2810.68 1291.42 2805.05 1301.54 2772.2 1286.42 2765.83 1294.29 2759.46 1302.16 2781.67 1329.76 2772.46 1338.63 2763.25 1347.5 2726.05 1376.32 2710.58 1347.5Z" fill="#FFFFFF" fill-rule="evenodd"/><path d="M2879.02 1132.23C2909.95 1122.19 3032.36 1127.45 3056.76 1140.83 3081.15 1154.21 3037.05 1201.14 3025.39 1212.51 3013.73 1223.89 2992.3 1212.7 2985.77 1233.73 2985.91 1268.71 2986.05 1303.69 2986.18 1338.67 2971.71 1361.7 2911.66 1370.69 2899.93 1347.27 2888.19 1323.86 2921.58 1241.03 2916.79 1216.66 2912 1192.28 2877.3 1212.03 2871.17 1201.04 2865.05 1190.05 2848.08 1142.26 2879.02 1132.23Z" fill="#FFFFFF" fill-rule="evenodd"/></g></svg>