<svg width="1040" height="1040" xmlns="http://www.w3.org/2000/svg" xmlns:xlink="http://www.w3.org/1999/xlink" xml:space="preserve" overflow="hidden"><defs><clipPath id="clip0"><rect x="1680" y="1394" width="1040" height="1040"/></clipPath></defs><g clip-path="url(#clip0)" transform="translate(-1680 -1394)"><path d="M1964.54 1581.58C1941.59 1581.58 1922.98 1600.18 1922.98 1623.13L1922.98 1761.64C1922.98 1784.59 1941.59 1803.19 1964.54 1803.19L2200 1803.19 2200 2024.81 1964.54 2024.81C1941.59 2024.81 1922.98 2043.41 1922.98 2066.36L1922.98 2204.87C1922.98 2227.82 1941.59 2246.42 1964.54 2246.42L2158.45 2246.42C2181.4 2246.42 2200 2227.82 2200 2204.87L2200 2024.81 2435.47 2024.81C2458.41 2024.81 2477.02 2006.2 2477.02 1983.26L2477.02 1844.75C2477.02 1821.8 2458.41 1803.19 2435.47 1803.19L2200 1803.19 2200 1623.13C2200 1600.18 2181.4 1581.58 2158.45 1581.58ZM1680 1394 2720 1394 2720 2434 1680 2434Z" fill="#FFFFFF" fill-rule="evenodd"/></g></svg>