<svg width="268" height="328" xmlns="http://www.w3.org/2000/svg" xmlns:xlink="http://www.w3.org/1999/xlink" xml:space="preserve" overflow="hidden"><g transform="translate(-2066 -1043)"><path d="M2099.02 1097.54C2098.73 1091.74 2101.06 1088.45 2117.28 1076.21 2133.5 1063.98 2139 1090.1 2139 1097.54 2139 1104.97 2130.05 1111 2119.01 1111 2107.97 1111 2099.31 1103.34 2099.02 1097.54Z" fill="#BFBFBF" fill-rule="evenodd"/><rect x="2066" y="1104" width="268" height="267" fill="#804A22"/><path d="M2066 1104 2334 1104 2334 1179C2244.67 1179 2145.01 1134.29 2066 1179L2066 1104Z" fill="#70AD47" fill-rule="evenodd"/><path d="M2277.13 1082.8C2283.6 1072.86 2291.94 1066.81 2295.76 1069.3 2299.58 1071.78 2297.43 1081.86 2290.96 1091.8 2284.49 1101.75 2276.15 1107.8 2272.33 1105.31 2268.51 1102.83 2270.66 1092.75 2277.13 1082.8Z" fill="#70AD47" fill-rule="evenodd"/><path d="M2252.82 1078.57C2246.09 1061.04 2244.08 1045.5 2248.33 1043.87 2252.58 1042.24 2261.49 1055.13 2268.22 1072.66 2274.96 1090.19 2276.97 1105.73 2272.71 1107.36 2268.46 1108.99 2259.55 1096.11 2252.82 1078.57Z" fill="#70AD47" fill-rule="evenodd"/><path d="M2163.83 1095.21C2189.02 1094.06 2209.67 1098.12 2209.95 1104.28 2210.23 1110.44 2190.04 1116.37 2164.85 1117.52 2139.66 1118.67 2119.01 1114.61 2118.73 1108.45 2118.44 1102.29 2138.64 1096.36 2163.83 1095.21Z" fill="#70AD47" fill-rule="evenodd"/><path d="M2256.65 1160.43C2262.74 1147.63 2273.62 1140.07 2280.95 1143.56 2288.29 1147.05 2289.3 1160.25 2283.21 1173.06 2277.12 1185.87 2266.24 1193.42 2258.9 1189.94 2251.57 1186.45 2250.56 1173.24 2256.65 1160.43Z" fill="#70AD47" fill-rule="evenodd"/><path d="M2081.52 1175.08C2077.84 1158.78 2082.75 1143.79 2092.49 1141.59 2102.23 1139.38 2113.11 1150.81 2116.8 1167.1 2120.48 1183.4 2115.57 1198.39 2105.83 1200.6 2096.09 1202.8 2085.21 1191.37 2081.52 1175.08Z" fill="#70AD47" fill-rule="evenodd"/><path d="M2106.29 1161.89C2094.92 1149.66 2088.41 1137.22 2091.74 1134.12 2095.08 1131.02 2107.01 1138.42 2118.38 1150.66 2129.75 1162.9 2136.26 1175.34 2132.92 1178.44 2129.59 1181.54 2117.66 1174.13 2106.29 1161.89Z" fill="#70AD47" fill-rule="evenodd"/><path d="M2302.87 1171.17C2294.27 1159.89 2290.23 1148.51 2293.86 1145.75 2297.48 1142.99 2307.39 1149.89 2315.99 1161.17 2324.58 1172.44 2328.62 1183.82 2324.99 1186.59 2321.37 1189.35 2311.46 1182.45 2302.87 1171.17Z" fill="#70AD47" fill-rule="evenodd"/></g></svg>