<svg width="909" height="724" xmlns="http://www.w3.org/2000/svg" xmlns:xlink="http://www.w3.org/1999/xlink" xml:space="preserve" overflow="hidden"><g transform="translate(-1441 -506)"><path d="M1455 627.336C1455 568.056 1503.06 520 1562.34 520L2222.66 520C2281.94 520 2330 568.056 2330 627.336L2330 1056.66C2330 1115.94 2281.94 1164 2222.66 1164L1562.34 1164C1503.06 1164 1455 1115.94 1455 1056.66Z" stroke="#FFFFFF" stroke-width="27.5" stroke-miterlimit="8" fill="none" fill-rule="evenodd"/><path d="M1569 520 1964 520 1964 634C1964 696.961 1912.96 748.001 1850 748.001L1455 748 1455 634C1455 571.04 1506.04 520 1569 520Z" stroke="#FFFFFF" stroke-width="27.5" stroke-miterlimit="8" fill="none" fill-rule="evenodd"/><path d="M1667 634.5C1667 611.028 1686.03 592 1709.5 592 1732.97 592 1752 611.028 1752 634.5 1752 657.972 1732.97 677 1709.5 677 1686.03 677 1667 657.972 1667 634.5Z" fill="#FFFFFF" fill-rule="evenodd"/><path d="M1813 634.5C1813 611.028 1832.03 592 1855.5 592 1878.97 592 1898 611.028 1898 634.5 1898 657.972 1878.97 677 1855.5 677 1832.03 677 1813 657.972 1813 634.5Z" fill="#FFFFFF" fill-rule="evenodd"/><path d="M1521 634.5C1521 611.028 1540.03 592 1563.5 592 1586.97 592 1606 611.028 1606 634.5 1606 657.972 1586.97 677 1563.5 677 1540.03 677 1521 657.972 1521 634.5Z" fill="#FFFFFF" fill-rule="evenodd"/><path d="M2179.59 1198.33 2128.52 963.28 2335.32 1086.14 2225.37 1097.43 2179.59 1198.33Z" stroke="#FFFFFF" stroke-width="27.5" stroke-linecap="round" stroke-linejoin="round" stroke-miterlimit="10" fill="none" fill-rule="evenodd"/><path d="M2231.19 1104.92 2231.19 1104.92 2310.81 1215.43 2310.81 1215.43Z" stroke="#FFFFFF" stroke-width="27.5" stroke-linecap="round" stroke-linejoin="round" stroke-miterlimit="10" fill="none" fill-rule="evenodd"/></g></svg>