<svg width="2004" height="762" xmlns="http://www.w3.org/2000/svg" xmlns:xlink="http://www.w3.org/1999/xlink" xml:space="preserve" overflow="hidden"><g transform="translate(-1198 -866)"><path d="M1540 878 1667.5 878 1667.5 1280.09 1667.5 1280.09 1795 1408 1667.5 1408 1540 1280.09 1540 1280.09Z" stroke="#FFFFFF" stroke-width="8.02083" stroke-linecap="round" stroke-linejoin="round" stroke-miterlimit="10" fill="#FFFFFF" fill-rule="evenodd"/><path d="M1339.75 1151.08 1467.37 1279.04 1467.37 1279.04 1595 1407 1467.37 1407 1339.75 1279.04 1339.75 1279.04ZM1465.91 1023.12 1465.91 1151.08 1339.75 1151.08 1338.29 1151.08ZM1202 870 1329.63 870 1329.63 1407 1202 1407Z" stroke="#FFFFFF" stroke-width="8.02083" stroke-linecap="round" stroke-linejoin="round" stroke-miterlimit="10" fill="#FFFFFF" fill-rule="evenodd"/><path d="M2143 1015 2270.55 1142.49 2271.01 1142.49 2271.01 1142.34 2392.99 1264.27C2392.99 1183.91 2392.99 1103.55 2392.99 1023.19L2521 1023.19 2521 1409 2392.99 1409 2392.99 1394.62 2271.01 1272.69 2271.01 1408.01 2143 1408.01 2143 1142.95 2143 1142.95 2143 1015Z" stroke="#FFFFFF" stroke-width="8.02083" stroke-linecap="round" stroke-linejoin="round" stroke-miterlimit="10" fill="#FFFFFF" fill-rule="evenodd"/><path d="M3070.16 1152.12 3198 1280.06 3198 1280.06 3198 1408 3070.16 1280.06 3070.16 1280.06ZM3196.53 1024.19 3196.53 1152.12 3070.16 1152.12 3068.7 1152.12ZM2931 1016 3058.84 1016 3058.84 1406.52 2931 1406.52Z" stroke="#FFFFFF" stroke-width="8.02083" stroke-linecap="round" stroke-linejoin="round" stroke-miterlimit="10" fill="#FFFFFF" fill-rule="evenodd"/><path d="M2677.05 1269.27 2789.27 1389.17 2903 1275.74 2903 1403.53 2903 1403.53 2903 1406 2805.02 1406 2805.02 1406 2677.05 1406ZM2805.02 1014 2805.02 1141.48 2805.02 1141.79 2804.71 1141.79 2676.97 1269.2 2676.97 1269.27 2677.05 1269.27 2677.05 1406 2549.64 1269.88 2549 1269.88 2549.33 1269.55 2549.07 1269.27 2549.6 1269.27 2676.9 1142.01 2676.9 1141.79 2676.9 1141.48 2677.21 1141.48Z" stroke="#FFFFFF" stroke-width="8.02083" stroke-linecap="round" stroke-linejoin="round" stroke-miterlimit="10" fill="#FFFFFF" fill-rule="evenodd"/><path d="M1859 1144 1859 1244.53 1959.53 1244.53ZM1859 1144 1987 1144 1987 1244.53 1987 1244.53 1987 1144 2115 1272 1987 1272 1987 1272 1987 1272 1860.08 1272 1859.71 1272 1859.71 1272.28 1860.08 1272.65 1860.08 1272 1950.06 1361.98 2040.1 1272.15 2040.1 1272.79 2040.74 1272.15 2040.74 1400 2040.1 1400 1988.08 1400 1988.08 1400 1987.43 1400 1860.08 1400 1859.71 1400 1859.43 1400 1859.43 1399.72 1731.72 1272 1731 1272 1731 1244.53 1731 1144 1859 1144ZM1859 1016 1987 1144 1859 1144ZM1859 1016 1859 1144 1731 1144Z" stroke="#FFFFFF" stroke-width="8.02083" stroke-linecap="round" stroke-linejoin="round" stroke-miterlimit="10" fill="#FFFFFF" fill-rule="evenodd"/><path d="M2185.67 1507.57C2184.88 1507.57 2184.36 1507.72 2184.11 1508.01 2183.86 1508.3 2183.73 1508.8 2183.73 1509.51L2183.73 1554.32C2183.73 1555.03 2183.86 1555.52 2184.11 1555.79 2184.36 1556.06 2184.88 1556.2 2185.67 1556.2L2193.98 1556.2C2203.07 1556.2 2210.05 1554.06 2214.92 1549.79 2219.8 1545.52 2222.23 1539.42 2222.23 1531.51 2222.23 1524.01 2219.79 1518.14 2214.89 1513.91 2209.99 1509.68 2203.19 1507.57 2194.48 1507.57ZM2399.48 1505.88C2392.32 1505.88 2386.38 1508.3 2381.67 1513.13 2376.96 1517.97 2374.61 1524.26 2374.61 1532.01 2374.61 1539.63 2376.92 1545.85 2381.55 1550.66 2386.17 1555.48 2392.11 1557.88 2399.36 1557.88 2406.44 1557.88 2412.39 1555.47 2417.2 1550.63 2422.02 1545.8 2424.42 1539.59 2424.42 1532.01 2424.42 1524.26 2422.06 1517.97 2417.33 1513.13 2412.6 1508.3 2406.65 1505.88 2399.48 1505.88ZM2290.8 1487.07 2306.3 1487.07C2307.51 1487.07 2308.38 1487.34 2308.92 1487.88 2309.46 1488.42 2309.73 1489.28 2309.73 1490.45L2309.73 1573.38C2309.73 1574.55 2309.46 1575.39 2308.92 1575.91 2308.38 1576.43 2307.51 1576.7 2306.3 1576.7L2290.8 1576.7C2288.59 1576.7 2287.48 1575.59 2287.48 1573.38L2287.48 1490.45C2287.48 1488.2 2288.59 1487.07 2290.8 1487.07ZM2164.8 1487.07 2196.3 1487.07C2211.55 1487.07 2223.53 1490.99 2232.23 1498.82 2240.94 1506.65 2245.3 1517.34 2245.3 1530.88 2245.3 1544.97 2240.76 1556.12 2231.67 1564.35 2222.59 1572.58 2210.07 1576.7 2194.11 1576.7L2164.8 1576.7C2162.59 1576.7 2161.48 1575.59 2161.48 1573.38L2161.48 1490.45C2161.48 1488.2 2162.59 1487.07 2164.8 1487.07ZM2037.17 1487.07 2052.61 1487.07C2054.94 1487.07 2056.11 1488.2 2056.11 1490.45L2056.11 1536.51C2056.11 1543.42 2057.63 1548.72 2060.67 1552.38 2063.71 1556.05 2068.26 1557.88 2074.3 1557.88 2080.26 1557.88 2084.79 1556.03 2087.89 1552.32 2090.99 1548.61 2092.55 1543.34 2092.55 1536.51L2092.55 1490.45C2092.55 1488.2 2093.67 1487.07 2095.92 1487.07L2111.36 1487.07C2113.69 1487.07 2114.86 1488.2 2114.86 1490.45L2114.86 1538.07C2114.86 1550.78 2111.17 1560.67 2103.8 1567.76 2096.42 1574.84 2086.32 1578.38 2073.48 1578.38 2061.11 1578.38 2051.4 1574.93 2044.36 1568.04 2037.32 1561.14 2033.8 1551.24 2033.8 1538.32L2033.8 1490.45C2033.8 1488.2 2034.92 1487.07 2037.17 1487.07ZM1925.11 1487.07 1991.67 1487.07C1993.88 1487.07 1994.98 1488.2 1994.98 1490.45L1994.98 1504.26C1994.98 1506.47 1993.88 1507.57 1991.67 1507.57L1971.42 1507.57C1970.71 1507.57 1970.22 1507.72 1969.95 1508.01 1969.68 1508.3 1969.55 1508.8 1969.55 1509.51L1969.55 1573.38C1969.55 1575.59 1968.42 1576.7 1966.17 1576.7L1950.61 1576.7C1948.36 1576.7 1947.23 1575.59 1947.23 1573.38L1947.23 1509.51C1947.23 1508.8 1947.1 1508.3 1946.83 1508.01 1946.56 1507.72 1946.07 1507.57 1945.36 1507.57L1925.11 1507.57C1922.9 1507.57 1921.8 1506.47 1921.8 1504.26L1921.8 1490.45C1921.8 1488.2 1922.9 1487.07 1925.11 1487.07ZM2519.05 1485.45C2527.67 1485.45 2535.3 1487.28 2541.92 1490.95 2548.55 1494.61 2551.9 1497.26 2551.98 1498.88 2551.98 1499.67 2551.67 1500.57 2551.05 1501.57L2544.11 1512.57C2543.73 1513.15 2543.33 1513.59 2542.89 1513.88 2542.45 1514.17 2542.05 1514.32 2541.67 1514.32 2540.92 1514.32 2539.97 1513.89 2538.83 1513.04 2537.68 1512.18 2535.85 1511.06 2533.33 1509.66 2530.81 1508.27 2528.4 1507.25 2526.11 1506.6 2523.82 1505.96 2521.42 1505.63 2518.92 1505.63 2515.38 1505.63 2512.66 1506.3 2510.77 1507.63 2508.87 1508.97 2507.92 1510.7 2507.92 1512.82 2507.92 1516.4 2511.17 1518.96 2517.67 1520.48 2524.17 1522 2530.02 1523.79 2535.2 1525.85 2540.39 1527.91 2544.52 1530.86 2547.58 1534.7 2550.64 1538.53 2552.17 1543.45 2552.17 1549.45 2552.17 1558.32 2548.94 1565.36 2542.48 1570.57 2536.03 1575.78 2527.36 1578.38 2516.48 1578.38 2507.44 1578.38 2499.41 1576.56 2492.39 1572.91 2485.37 1569.27 2481.86 1566.47 2481.86 1564.51 2481.86 1563.72 2482.21 1562.78 2482.92 1561.7L2489.61 1551.07C2490.03 1550.4 2490.44 1549.91 2490.86 1549.6 2491.28 1549.29 2491.69 1549.13 2492.11 1549.13 2492.9 1549.13 2494.04 1549.75 2495.52 1550.98 2496.99 1552.21 2499.7 1553.71 2503.64 1555.48 2507.58 1557.25 2511.86 1558.13 2516.48 1558.13 2520.73 1558.13 2523.9 1557.47 2525.98 1556.13 2528.07 1554.8 2529.11 1553.03 2529.11 1550.82 2529.11 1548.49 2527.91 1546.71 2525.52 1545.48 2523.12 1544.25 2518.91 1542.91 2512.89 1541.48 2506.87 1540.04 2501.8 1538.21 2497.67 1535.98 2493.55 1533.75 2490.38 1530.86 2488.17 1527.32 2485.96 1523.78 2484.86 1519.38 2484.86 1514.13 2484.86 1505.3 2487.95 1498.31 2494.14 1493.16 2500.33 1488.02 2508.63 1485.45 2519.05 1485.45ZM2399.48 1485.45C2408.57 1485.45 2416.81 1487.45 2424.2 1491.45 2431.6 1495.45 2437.33 1501.01 2441.39 1508.13 2445.45 1515.26 2447.48 1523.17 2447.48 1531.88 2447.48 1545.47 2442.92 1556.61 2433.8 1565.32 2424.67 1574.03 2413.15 1578.38 2399.23 1578.38 2385.44 1578.38 2374.06 1574.04 2365.08 1565.35 2356.1 1556.66 2351.61 1545.59 2351.61 1532.13 2351.61 1518.63 2356.13 1507.48 2365.17 1498.66 2374.21 1489.85 2385.65 1485.45 2399.48 1485.45ZM1855.05 1485.45C1863.67 1485.45 1871.3 1487.28 1877.92 1490.95 1884.55 1494.61 1887.9 1497.26 1887.98 1498.88 1887.98 1499.67 1887.67 1500.57 1887.05 1501.57L1880.11 1512.57C1879.73 1513.15 1879.33 1513.59 1878.89 1513.88 1878.45 1514.17 1878.05 1514.32 1877.67 1514.32 1876.92 1514.32 1875.97 1513.89 1874.83 1513.04 1873.68 1512.18 1871.85 1511.06 1869.33 1509.66 1866.81 1508.27 1864.4 1507.25 1862.11 1506.6 1859.82 1505.96 1857.42 1505.63 1854.92 1505.63 1851.38 1505.63 1848.66 1506.3 1846.77 1507.63 1844.87 1508.97 1843.92 1510.7 1843.92 1512.82 1843.92 1516.4 1847.17 1518.96 1853.67 1520.48 1860.17 1522 1866.02 1523.79 1871.2 1525.85 1876.39 1527.91 1880.52 1530.86 1883.58 1534.7 1886.64 1538.53 1888.17 1543.45 1888.17 1549.45 1888.17 1558.32 1884.94 1565.36 1878.48 1570.57 1872.03 1575.78 1863.36 1578.38 1852.48 1578.38 1843.44 1578.38 1835.41 1576.56 1828.39 1572.91 1821.37 1569.27 1817.86 1566.47 1817.86 1564.51 1817.86 1563.72 1818.21 1562.78 1818.92 1561.7L1825.61 1551.07C1826.03 1550.4 1826.44 1549.91 1826.86 1549.6 1827.28 1549.29 1827.69 1549.13 1828.11 1549.13 1828.9 1549.13 1830.04 1549.75 1831.52 1550.98 1832.99 1552.21 1835.7 1553.71 1839.64 1555.48 1843.58 1557.25 1847.86 1558.13 1852.48 1558.13 1856.73 1558.13 1859.9 1557.47 1861.98 1556.13 1864.07 1554.8 1865.11 1553.03 1865.11 1550.82 1865.11 1548.49 1863.91 1546.71 1861.52 1545.48 1859.12 1544.25 1854.91 1542.91 1848.89 1541.48 1842.87 1540.04 1837.8 1538.21 1833.67 1535.98 1829.55 1533.75 1826.38 1530.86 1824.17 1527.32 1821.96 1523.78 1820.86 1519.38 1820.86 1514.13 1820.86 1505.3 1823.95 1498.31 1830.14 1493.16 1836.33 1488.02 1844.63 1485.45 1855.05 1485.45Z" stroke="#FFFFFF" stroke-width="5" stroke-linejoin="round" stroke-miterlimit="10" fill="#FFFFFF" fill-rule="evenodd"/><text fill="#000000" fill-opacity="0" font-family="Arial,Arial_MSFontService,sans-serif" font-size="92.9375" x="1817.86" y="1566.77">STUDIOS</text></g></svg>