<svg width="1478" height="547" xmlns="http://www.w3.org/2000/svg" xmlns:xlink="http://www.w3.org/1999/xlink" xml:space="preserve" overflow="hidden"><g transform="translate(-1461 -962)"><path d="M1714 973 1808 973 1808 1268.87 1808 1268.87 1902 1363 1808 1363 1714 1268.87 1714 1268.87Z" stroke="#232428" stroke-width="8.02083" stroke-linecap="round" stroke-linejoin="round" stroke-miterlimit="10" fill="#232428" fill-rule="evenodd"/><path d="M1566.65 1173.28 1660.82 1267.64 1660.82 1267.64 1755 1362 1660.82 1362 1566.65 1267.64 1566.65 1267.64ZM1659.74 1078.92 1659.74 1173.28 1566.65 1173.28 1565.57 1173.28ZM1465 966 1559.18 966 1559.18 1362 1465 1362Z" stroke="#232428" stroke-width="8.02083" stroke-linecap="round" stroke-linejoin="round" stroke-miterlimit="10" fill="#232428" fill-rule="evenodd"/><path d="M2158 1074 2251.81 1167.84 2252.14 1167.84 2252.14 1167.73 2341.86 1257.47C2341.86 1198.32 2341.86 1139.17 2341.86 1080.03L2436 1080.03 2436 1364 2341.86 1364 2341.86 1353.42 2252.14 1263.67 2252.14 1363.27 2158 1363.27 2158 1168.17 2158 1168.17 2158 1074Z" stroke="#232428" stroke-width="8.02083" stroke-linecap="round" stroke-linejoin="round" stroke-miterlimit="10" fill="#232428" fill-rule="evenodd"/><path d="M2841.16 1175.01 2935 1269 2935 1269 2935 1363 2841.16 1269 2841.16 1269ZM2933.92 1081.01 2933.92 1175.01 2841.16 1175.01 2840.08 1175.01ZM2739 1075 2832.84 1075 2832.84 1361.91 2739 1361.91Z" stroke="#232428" stroke-width="8.02083" stroke-linecap="round" stroke-linejoin="round" stroke-miterlimit="10" fill="#232428" fill-rule="evenodd"/><path d="M2551.41 1261.2 2634.15 1349.6 2718 1265.97 2718 1360.18 2718 1360.18 2718 1362 2645.76 1362 2645.76 1362 2551.41 1362ZM2645.76 1073 2645.76 1166.99 2645.76 1167.21 2645.53 1167.21 2551.35 1261.14 2551.35 1261.2 2551.41 1261.2 2551.41 1362 2457.47 1261.64 2457 1261.64 2457.24 1261.4 2457.05 1261.2 2457.45 1261.2 2551.3 1167.38 2551.3 1167.21 2551.3 1166.99 2551.53 1166.99Z" stroke="#232428" stroke-width="8.02083" stroke-linecap="round" stroke-linejoin="round" stroke-miterlimit="10" fill="#232428" fill-rule="evenodd"/><path d="M1949 1168.33 1949 1242.42 2022.83 1242.42ZM1949 1168.33 2043 1168.33 2043 1242.42 2043 1242.42 2043 1168.33 2137 1262.67 2043 1262.67 2043 1262.67 2043 1262.67 1949.79 1262.67 1949.52 1262.67 1949.52 1262.88 1949.79 1263.14 1949.79 1262.67 2015.87 1328.98 2081.99 1262.78 2081.99 1263.25 2082.47 1262.78 2082.47 1357 2081.99 1357 2043.79 1357 2043.79 1357 2043.32 1357 1949.79 1357 1949.52 1357 1949.32 1357 1949.32 1356.79 1855.53 1262.67 1855 1262.67 1855 1242.42 1855 1168.33 1949 1168.33ZM1949 1074 2043 1168.33 1949 1168.33ZM1949 1074 1949 1168.33 1855 1168.33Z" stroke="#232428" stroke-width="8.02083" stroke-linecap="round" stroke-linejoin="round" stroke-miterlimit="10" fill="#232428" fill-rule="evenodd"/><path d="M2186.09 1417.01C2185.52 1417.01 2185.15 1417.11 2184.97 1417.32 2184.79 1417.53 2184.7 1417.89 2184.7 1418.4L2184.7 1450.61C2184.7 1451.12 2184.79 1451.47 2184.97 1451.67 2185.15 1451.86 2185.52 1451.96 2186.09 1451.96L2192.06 1451.96C2198.59 1451.96 2203.61 1450.42 2207.11 1447.35 2210.62 1444.28 2212.37 1439.91 2212.37 1434.21 2212.37 1428.82 2210.61 1424.61 2207.09 1421.57 2203.57 1418.53 2198.68 1417.01 2192.42 1417.01ZM2354.61 1415.8C2349.46 1415.8 2345.19 1417.53 2341.81 1421.01 2338.42 1424.48 2336.73 1429 2336.73 1434.57 2336.73 1440.05 2338.39 1444.52 2341.72 1447.98 2345.04 1451.44 2349.31 1453.17 2354.52 1453.17 2359.61 1453.17 2363.89 1451.44 2367.35 1447.96 2370.8 1444.49 2372.53 1440.02 2372.53 1434.57 2372.53 1429 2370.83 1424.48 2367.44 1421.01 2364.04 1417.53 2359.76 1415.8 2354.61 1415.8ZM2269.08 1402.28 2280.23 1402.28C2281.09 1402.28 2281.72 1402.47 2282.11 1402.86 2282.5 1403.25 2282.7 1403.86 2282.7 1404.7L2282.7 1464.31C2282.7 1465.15 2282.5 1465.76 2282.11 1466.13 2281.72 1466.51 2281.09 1466.69 2280.23 1466.69L2269.08 1466.69C2267.5 1466.69 2266.7 1465.9 2266.7 1464.31L2266.7 1404.7C2266.7 1403.08 2267.5 1402.28 2269.08 1402.28ZM2171.08 1402.28 2193.73 1402.28C2204.69 1402.28 2213.3 1405.09 2219.56 1410.72 2225.81 1416.35 2228.94 1424.03 2228.94 1433.77 2228.94 1443.89 2225.68 1451.91 2219.15 1457.82 2212.62 1463.74 2203.62 1466.69 2192.15 1466.69L2171.08 1466.69C2169.5 1466.69 2168.7 1465.9 2168.7 1464.31L2168.7 1404.7C2168.7 1403.08 2169.5 1402.28 2171.08 1402.28ZM2071.64 1402.28 2082.73 1402.28C2084.41 1402.28 2085.25 1403.08 2085.25 1404.7L2085.25 1437.81C2085.25 1442.78 2086.34 1446.58 2088.53 1449.22 2090.71 1451.85 2093.98 1453.17 2098.32 1453.17 2102.6 1453.17 2105.86 1451.84 2108.09 1449.17 2110.32 1446.51 2111.44 1442.72 2111.44 1437.81L2111.44 1404.7C2111.44 1403.08 2112.25 1402.28 2113.86 1402.28L2124.96 1402.28C2126.64 1402.28 2127.47 1403.08 2127.47 1404.7L2127.47 1438.93C2127.47 1448.07 2124.82 1455.18 2119.52 1460.27 2114.22 1465.36 2106.96 1467.91 2097.74 1467.91 2088.84 1467.91 2081.86 1465.43 2076.8 1460.47 2071.74 1455.52 2069.21 1448.4 2069.21 1439.11L2069.21 1404.7C2069.21 1403.08 2070.02 1402.28 2071.64 1402.28ZM1984.56 1402.28 2032.4 1402.28C2033.99 1402.28 2034.78 1403.08 2034.78 1404.7L2034.78 1414.63C2034.78 1416.22 2033.99 1417.01 2032.4 1417.01L2017.85 1417.01C2017.34 1417.01 2016.99 1417.11 2016.79 1417.32 2016.6 1417.53 2016.5 1417.89 2016.5 1418.4L2016.5 1464.31C2016.5 1465.9 2015.69 1466.69 2014.07 1466.69L2002.89 1466.69C2001.27 1466.69 2000.46 1465.9 2000.46 1464.31L2000.46 1418.4C2000.46 1417.89 2000.36 1417.53 2000.17 1417.32 1999.98 1417.11 1999.62 1417.01 1999.11 1417.01L1984.56 1417.01C1982.97 1417.01 1982.18 1416.22 1982.18 1414.63L1982.18 1404.7C1982.18 1403.08 1982.97 1402.28 1984.56 1402.28ZM2447.95 1401.11C2454.15 1401.11 2459.63 1402.43 2464.39 1405.06 2469.16 1407.7 2471.57 1409.6 2471.63 1410.77 2471.63 1411.33 2471.4 1411.98 2470.95 1412.7L2465.97 1420.6C2465.7 1421.02 2465.4 1421.34 2465.09 1421.55 2464.78 1421.76 2464.48 1421.86 2464.21 1421.86 2463.67 1421.86 2462.99 1421.55 2462.17 1420.94 2461.35 1420.33 2460.03 1419.52 2458.22 1418.51 2456.41 1417.51 2454.68 1416.78 2453.03 1416.31 2451.38 1415.85 2449.66 1415.62 2447.86 1415.62 2445.32 1415.62 2443.36 1416.1 2442 1417.05 2440.64 1418.01 2439.96 1419.26 2439.96 1420.78 2439.96 1423.36 2442.29 1425.19 2446.96 1426.29 2451.64 1427.38 2455.84 1428.67 2459.56 1430.15 2463.29 1431.63 2466.26 1433.75 2468.46 1436.51 2470.66 1439.26 2471.76 1442.8 2471.76 1447.11 2471.76 1453.49 2469.44 1458.55 2464.8 1462.29 2460.16 1466.03 2453.93 1467.91 2446.11 1467.91 2439.61 1467.91 2433.84 1466.6 2428.79 1463.98 2423.75 1461.36 2421.22 1459.34 2421.22 1457.93 2421.22 1457.36 2421.48 1456.69 2421.99 1455.91L2426.79 1448.28C2427.09 1447.8 2427.39 1447.44 2427.69 1447.22 2427.99 1447 2428.29 1446.88 2428.59 1446.88 2429.16 1446.88 2429.98 1447.32 2431.04 1448.21 2432.1 1449.09 2434.05 1450.17 2436.88 1451.44 2439.71 1452.72 2442.79 1453.35 2446.11 1453.35 2449.17 1453.35 2451.44 1452.87 2452.94 1451.91 2454.44 1450.96 2455.18 1449.68 2455.18 1448.1 2455.18 1446.42 2454.32 1445.14 2452.6 1444.26 2450.88 1443.37 2447.85 1442.41 2443.53 1441.38 2439.2 1440.35 2435.55 1439.03 2432.59 1437.43 2429.62 1435.82 2427.35 1433.75 2425.76 1431.21 2424.17 1428.66 2423.38 1425.5 2423.38 1421.73 2423.38 1415.38 2425.6 1410.35 2430.05 1406.66 2434.5 1402.96 2440.47 1401.11 2447.95 1401.11ZM2354.61 1401.11C2361.14 1401.11 2367.06 1402.55 2372.38 1405.42 2377.69 1408.3 2381.81 1412.29 2384.73 1417.41 2387.65 1422.54 2389.11 1428.23 2389.11 1434.48 2389.11 1444.25 2385.83 1452.26 2379.27 1458.52 2372.71 1464.78 2364.43 1467.91 2354.43 1467.91 2344.52 1467.91 2336.33 1464.78 2329.88 1458.54 2323.43 1452.3 2320.2 1444.34 2320.2 1434.66 2320.2 1424.96 2323.45 1416.94 2329.95 1410.61 2336.45 1404.27 2344.67 1401.11 2354.61 1401.11ZM1925.95 1401.11C1932.15 1401.11 1937.63 1402.43 1942.39 1405.06 1947.16 1407.7 1949.57 1409.6 1949.63 1410.77 1949.63 1411.33 1949.4 1411.98 1948.95 1412.7L1943.97 1420.6C1943.7 1421.02 1943.4 1421.34 1943.09 1421.55 1942.78 1421.76 1942.48 1421.86 1942.21 1421.86 1941.67 1421.86 1940.99 1421.55 1940.17 1420.94 1939.35 1420.33 1938.03 1419.52 1936.22 1418.51 1934.41 1417.51 1932.68 1416.78 1931.03 1416.31 1929.38 1415.85 1927.66 1415.62 1925.86 1415.62 1923.32 1415.62 1921.36 1416.1 1920 1417.05 1918.64 1418.01 1917.96 1419.26 1917.96 1420.78 1917.96 1423.36 1920.29 1425.19 1924.96 1426.29 1929.64 1427.38 1933.84 1428.67 1937.56 1430.15 1941.29 1431.63 1944.26 1433.75 1946.46 1436.51 1948.66 1439.26 1949.76 1442.8 1949.76 1447.11 1949.76 1453.49 1947.44 1458.55 1942.8 1462.29 1938.16 1466.03 1931.93 1467.91 1924.11 1467.91 1917.61 1467.91 1911.84 1466.6 1906.79 1463.98 1901.75 1461.36 1899.22 1459.34 1899.22 1457.93 1899.22 1457.36 1899.48 1456.69 1899.99 1455.91L1904.79 1448.28C1905.09 1447.8 1905.39 1447.44 1905.69 1447.22 1905.99 1447 1906.29 1446.88 1906.59 1446.88 1907.16 1446.88 1907.98 1447.32 1909.04 1448.21 1910.1 1449.09 1912.05 1450.17 1914.88 1451.44 1917.71 1452.72 1920.79 1453.35 1924.11 1453.35 1927.17 1453.35 1929.44 1452.87 1930.94 1451.91 1932.44 1450.96 1933.18 1449.68 1933.18 1448.1 1933.18 1446.42 1932.32 1445.14 1930.6 1444.26 1928.88 1443.37 1925.85 1442.41 1921.53 1441.38 1917.2 1440.35 1913.55 1439.03 1910.59 1437.43 1907.62 1435.82 1905.35 1433.75 1903.76 1431.21 1902.17 1428.66 1901.38 1425.5 1901.38 1421.73 1901.38 1415.38 1903.6 1410.35 1908.05 1406.66 1912.5 1402.96 1918.47 1401.11 1925.95 1401.11Z" stroke="#232428" stroke-width="5" stroke-linejoin="round" stroke-miterlimit="10" fill="#232428" fill-rule="evenodd"/><text fill="#000000" fill-opacity="0" font-family="Arial,Arial_MSFontService,sans-serif" font-size="66.7988" x="1899.22" y="1459.56">STUDIOS</text></g></svg>