<svg width="1552" height="1553" xmlns="http://www.w3.org/2000/svg" xmlns:xlink="http://www.w3.org/1999/xlink" xml:space="preserve" overflow="hidden"><g transform="translate(-1424 -461)"><path d="M1766.71 781.998C1766.71 746.065 1795.86 716.935 1831.82 716.935L2135.61 716.935C2171.57 716.935 2200.71 746.065 2200.71 781.998L2200.71 1063.93 1831.82 1063.93C1795.86 1063.93 1766.71 1034.8 1766.71 998.874L1766.71 781.998Z" fill="#F26207" fill-rule="evenodd"/><path d="M2200.71 1063.93 2567.91 1063.93C2603.69 1063.93 2632.71 1093.06 2632.71 1129L2632.71 1345.87C2632.71 1381.8 2603.69 1410.93 2567.91 1410.93L2200.71 1410.93 2200.71 1063.93Z" fill="#F26207" fill-rule="evenodd"/><path d="M1766.71 1476C1766.71 1440.07 1795.86 1410.93 1831.82 1410.93L2200.71 1410.93 2200.71 1692.87C2200.71 1728.8 2171.57 1757.93 2135.61 1757.93L1831.82 1757.93C1795.86 1757.93 1766.71 1728.8 1766.71 1692.87L1766.71 1476Z" fill="#F26207" fill-rule="evenodd"/></g></svg>